<svg width="50" height="58" viewBox="0 0 50 58" fill="none" xmlns="http://www.w3.org/2000/svg">
<g clip-path="url(#clip0_133_104)">
<path d="M25.0195 19.1847C17.9213 19.1847 12.1959 24.9102 12.1959 32.0084C12.1959 39.1066 17.9213 44.832 25.0195 44.832C32.1177 44.832 37.8432 39.1066 37.8432 32.0084C37.8432 24.9102 32.1177 19.1847 25.0195 19.1847ZM25.0195 40.3454C20.4325 40.3454 16.6825 36.6066 16.6825 32.0084C16.6825 27.4102 20.4213 23.6713 25.0195 23.6713C29.6177 23.6713 33.3566 27.4102 33.3566 32.0084C33.3566 36.6066 29.6066 40.3454 25.0195 40.3454ZM41.3588 18.6602C41.3588 20.3231 40.0195 21.6512 38.3677 21.6512C36.7048 21.6512 35.3767 20.3119 35.3767 18.6602C35.3767 17.0084 36.716 15.6691 38.3677 15.6691C40.0195 15.6691 41.3588 17.0084 41.3588 18.6602ZM49.8521 21.6959C49.6624 17.6892 48.7472 14.1401 45.8119 11.216C42.8878 8.29185 39.3387 7.37667 35.332 7.17578C31.2026 6.94141 18.8253 6.94141 14.6959 7.17578C10.7003 7.36551 7.15123 8.28069 4.21596 11.2048C1.28069 14.1289 0.376674 17.678 0.175781 21.6847C-0.0585937 25.8142 -0.0585937 38.1914 0.175781 42.3209C0.365513 46.3276 1.28069 49.8767 4.21596 52.8008C7.15123 55.7249 10.6892 56.6401 14.6959 56.841C18.8253 57.0753 31.2026 57.0753 35.332 56.841C39.3387 56.6512 42.8878 55.736 45.8119 52.8008C48.736 49.8767 49.6512 46.3276 49.8521 42.3209C50.0865 38.1914 50.0865 25.8253 49.8521 21.6959ZM44.5173 46.7517C43.6468 48.9392 41.9615 50.6244 39.7628 51.5061C36.4704 52.8119 28.6579 52.5106 25.0195 52.5106C21.3811 52.5106 13.5575 52.8008 10.2762 51.5061C8.08873 50.6356 6.40346 48.9503 5.52176 46.7517C4.21596 43.4593 4.5173 35.6468 4.5173 32.0084C4.5173 28.37 4.22712 20.5463 5.52176 17.2651C6.3923 15.0776 8.07757 13.3923 10.2762 12.5106C13.5686 11.2048 21.3811 11.5061 25.0195 11.5061C28.6579 11.5061 36.4816 11.216 39.7628 12.5106C41.9503 13.3811 43.6356 15.0664 44.5173 17.2651C45.8231 20.5575 45.5218 28.37 45.5218 32.0084C45.5218 35.6468 45.8231 43.4704 44.5173 46.7517Z" fill="#8D8600"/>
</g>
<defs>
<clipPath id="clip0_133_104">
<rect width="50" height="57.1429" fill="white"/>
</clipPath>
</defs>
</svg>
