<svg width="52" height="52" viewBox="0 0 52 52" fill="none" xmlns="http://www.w3.org/2000/svg">
<g clip-path="url(#clip0_133_101)">
<path d="M16.7477 2.49877C15.9656 0.609712 13.9039 -0.395757 11.9336 0.142524L2.99609 2.58002C1.22891 3.06752 0 4.67221 0 6.50034C0 31.6269 20.3734 52.0003 45.5 52.0003C47.3281 52.0003 48.9328 50.7714 49.4203 49.0042L51.8578 40.0667C52.3961 38.0964 51.3906 36.0347 49.5016 35.2527L39.7516 31.1902C38.0961 30.4996 36.1766 30.9769 35.0492 32.3683L30.9461 37.3753C23.7961 33.9933 18.007 28.2042 14.625 21.0542L19.632 16.9613C21.0234 15.8238 21.5008 13.9144 20.8102 12.2589L16.7477 2.50893V2.49877Z" fill="#6F7608"/>
</g>
<defs>
<clipPath id="clip0_133_101">
<rect width="52" height="52" fill="white"/>
</clipPath>
</defs>
</svg>
