<svg width="50" height="50" viewBox="0 0 50 50" fill="none" xmlns="http://www.w3.org/2000/svg">
<g clip-path="url(#clip0_133_117)">
<path d="M25 0C11.1895 0 0 11.1895 0 25C0 38.8105 11.1895 50 25 50C38.8105 50 50 38.8105 50 25C50 11.1895 38.8105 0 25 0ZM36.5927 17.006C36.2198 20.9577 34.5867 30.5544 33.7601 34.9798C33.4073 36.8548 32.7218 37.4798 32.0565 37.5403C30.6048 37.6714 29.5061 36.5827 28.0948 35.6552C25.8972 34.2137 24.6472 33.3165 22.5202 31.9052C20.0504 30.2823 21.6532 29.3851 23.0544 27.9234C23.4274 27.5403 29.8185 21.7238 29.9395 21.1996C29.9597 21.129 29.9698 20.8871 29.8185 20.756C29.6673 20.625 29.4556 20.6754 29.3044 20.7056C29.0827 20.753 25.5675 23.0746 18.7601 27.6714C17.7651 28.3569 16.8619 28.6895 16.0484 28.6694C15.1512 28.6492 13.4375 28.1653 12.1573 27.752C10.5948 27.248 9.34476 26.9758 9.45565 26.1089C9.50907 25.6583 10.131 25.1986 11.3206 24.7278C18.6058 21.5554 23.4647 19.4627 25.8972 18.4476C32.8427 15.5645 34.2843 15.0605 35.2218 15.0403C35.4335 15.0403 35.8871 15.0907 36.1895 15.3327C36.3871 15.506 36.5131 15.747 36.5423 16.0081C36.5968 16.3377 36.6139 16.6724 36.5927 17.006Z" fill="#6F7608"/>
</g>
<defs>
<clipPath id="clip0_133_117">
<rect width="50" height="50" fill="white"/>
</clipPath>
</defs>
</svg>
